<?xml version="1.0" encoding="utf-8"?>
<!-- source: Taken from https://konpa.github.io/devicon/ -->
<!DOCTYPE svg PUBLIC "-//W3C//DTD SVG 1.1//EN" "http://www.w3.org/Graphics/SVG/1.1/DTD/svg11.dtd">

<svg width="64px" height="64px" viewBox="0 0 128 128" version="1.1" xmlns="http://www.w3.org/2000/svg" xmlns:xlink="http://www.w3.org/1999/xlink"><title>DF40BCD3-069F-420F-9B64-E2AC97FF02FB@1.00x</title><desc>Babel Icon, taken from https://konpa.github.io/devicon/.</desc>

<path fill="url(#a)" d="M126.334 90.59a37.18 37.18 0 0 0 .128-1.647C126.5 88.288 87.094 50.9 87.094 50.9h-.942s39.94 42.13 40.182 39.69z"></path><path fill="url(#b)" d="M42.26 77.62a26.282 26.282 0 0 1-.328.702c-1.256 2.62 17.585 21.038 19.1 18.8.07-.098.14-.202.208-.3.077-.118.152-.23.228-.348 1.213-1.84-18.67-20.05-19.207-18.854z"></path><path fill="url(#c)" d="M68.886 103.52c-.053.118-.433.76-.78 1.098-.058.117 18.394 18.417 18.394 18.417h1.66c.002 0-17.32-18.74-19.274-19.514z"></path><path fill="url(#d)" d="M126.488 88.61c-.863 19.13-16.69 34.425-36.024 34.425H87.85l-19.31-19.022a69.313 69.313 0 0 0 4.38-6.98h17.544c5.55 0 10.064-4.514 10.064-10.065 0-5.55-4.515-10.064-10.064-10.064H80.082A69.373 69.373 0 0 0 81.306 64c0-4.48-.44-8.852-1.26-13.1h6.45l39.88 39.295a48.62 48.62 0 0 0 .112-1.585zM11.962 4.772H1.472v26.003h10.49c18.32 0 33.23 14.903 33.23 33.225 0 4.984-1.113 9.716-3.088 13.964L61.24 96.82A58.882 58.882 0 0 0 71.2 64c0-32.658-26.574-59.228-59.236-59.228z"></path><path fill="url(#e)" d="M90.464 4.772H47.986a69.81 69.81 0 0 1 24.82 26.003h17.658c5.55 0 10.064 4.513 10.064 10.064 0 5.55-4.515 10.06-10.064 10.06h-3.968l39.88 39.296a36.65 36.65 0 0 0 .152-3.228c0-8.766-3.146-16.807-8.368-23.066 5.223-6.256 8.368-14.3 8.368-23.063 0-19.887-16.177-36.068-36.064-36.068z"></path><path fill="url(#f)" d="M87.85 123.035H48.29a69.95 69.95 0 0 0 20.25-19.022l19.31 19.022zM61.24 96.82L42.106 77.965c-5.287 11.362-16.807 19.264-30.143 19.264H1.472v26h10.49c20.53 0 38.648-10.5 49.28-26.407z"></path>

</svg>
